Coordinates
version=1
nRows=21
nColumns=33
inDegrees=yes

Units are S.I. units (second, meters, Newtons, ...)
Angles are in degrees.

endheader
time	ground_thorax_rot_x	ground_thorax_rot_y	ground_thorax_rot_z	ground_thorax_tx	ground_thorax_ty	ground_thorax_tz	clav_prot_r	clav_elev_r	scapula_abduction_r	scapula_elevation_r	scapula_upward_rot_r	scapula_winging_r	shoulder_elv_r	plane_of_elev_r	axial_rot_r	elbow_flexion_r	pro_sup_r	wrist_flex_r	wrist_dev_r	clav_prot_l	clav_elev_l	scapula_abduction_l	scapula_elevation_l	scapula_upward_rot_l	scapula_winging_l	shoulder_elv_l	plane_of_elev_l	axial_rot_l	elbow_flexion_l	pro_sup_l	wrist_flex_l	wrist_dev_l
      2.80000000	     38.80053274	      3.79861476	      7.47146689	   -140.64940639	    813.72665930	      3.94357030	     17.48742261	     39.46286660	     44.94410237	     45.00000000	    -42.02218622	  -4045.01581804	  -1904.27920058	    144.89038618	    179.99999979	   1092.16102940	     39.79320130	     19.86382943	      7.58623300	      8.91531043	    -45.00000000	    -45.00000000	     45.00000000	    -19.76639320	    815.28769448	  -2613.77975157	    135.19313242	   -167.40287697	    365.89826459	   -339.89533862	     10.59045247	    -22.33452884
      2.81000000	     38.73515765	      4.16917114	      7.70765532	   -145.98806908	    814.31616616	      4.04440687	     17.46691456	     39.09552829	     44.63245363	     45.00000000	    -43.18240309	  -4045.20804621	  -1904.12087189	    144.78689356	    179.99999979	   1092.17090789	     41.09483765	     19.92091018	      7.53883065	      9.34057400	    -45.00000000	    -45.00000000	     45.00000000	    -20.87207531	    815.83401104	  -2613.79296482	    135.24319467	   -167.87069166	    365.84568013	   -340.21329198	     10.57964229	    -22.36941281
      2.82000000	     38.57935665	      4.98502392	      8.44934234	   -151.21355869	    814.85981049	      4.11453916	     17.31036197	     38.82628694	     44.20156433	     45.00000000	    -44.77167596	  -4045.19563192	  -1903.81760294	    144.80292498	    179.99999979	   1092.12391385	     42.55628216	     19.86931127	      7.34966294	      9.49608560	    -45.00000000	    -44.58693056	     45.00000000	    -22.86547252	    816.10136909	  -2613.71541013	    135.50292291	   -169.27470141	    366.00066126	   -340.54234019	     10.23592532	    -22.42290212
      2.83000000	     38.58139477	      5.05954359	      8.31859377	   -156.29936252	    815.35996095	      4.15868888	     17.22072739	     38.62121865	     43.92656563	     45.00000000	    -45.00000000	  -4045.35314310	  -1903.90368703	    144.89272923	    179.99999979	   1091.99558322	     43.82571241	     20.16170901	      7.56868976	      9.60882785	    -45.00000000	    -44.27744673	     45.00000000	    -23.74383640	    816.31778641	  -2613.69478957	    135.51296402	   -169.41168464	    365.85524396	   -340.77936098	     10.31926652	    -22.39936787
      2.84000000	     38.52619905	      5.49306721	      8.71650481	   -161.23347966	    815.83401795	      4.16800284	     17.12028037	     38.57559896	     43.29324932	     45.00000000	    -45.00000000	  -4045.30490333	  -1903.86179359	    145.06552777	    179.99999979	   1091.84761099	     45.24241376	     20.28494774	      7.57945924	      9.61221513	    -45.00000000	    -43.47589509	     45.00000000	    -25.72858769	    816.27861490	  -2613.44173249	    135.74078134	   -170.53744580	    365.96830536	   -340.95206655	      9.98487244	    -22.41215355
      2.85000000	     38.53161739	      5.65447361	      8.69671399	   -165.99908363	    816.29516351	      4.13918957	     16.97109753	     38.47063050	     42.95059343	     45.00000000	    -45.00000000	  -4045.38186900	  -1903.99902003	    145.26297584	    179.99999979	   1091.70264730	     46.53843411	     20.55778624	      7.71735009	      9.65629667	    -45.00000000	    -43.16116806	     45.00000000	    -26.76544578	    816.48328917	  -2613.42229971	    135.90097734	   -171.31636751	    365.95919907	   -341.06557091	      9.89094544	    -22.39900695
      2.86000000	     38.52542566	      5.79764554	      8.64293700	   -170.58420153	    816.75666186	      4.07164498	     16.83852422	     38.35618428	     42.58340446	     45.00000000	    -45.00000000	  -4045.42494059	  -1904.11780499	    145.39501082	    179.99999979	   1091.50536401	     47.73938343	     20.82691828	      7.85136934	      9.69265083	    -45.00000000	    -42.81553261	     45.00000000	    -27.85238409	    816.67512512	  -2613.37795907	    135.99590886	   -172.17418145	    365.92908474	   -341.07857592	      9.76228924	    -22.38286950
      2.87000000	     38.51705613	      5.96300832	      8.60845082	   -174.97874865	    817.22724541	      3.97170167	     16.71449997	     38.24108955	     42.18811110	     45.00000000	    -45.00000000	  -4045.44916959	  -1904.19970701	    145.53325205	    179.99999979	   1091.33588823	     48.83307788	     21.10704675	      7.97768109	      9.70175509	    -45.00000000	    -42.47891092	     45.00000000	    -28.86668318	    816.81825833	  -2613.35536748	    136.16245268	   -173.02871570	    365.89012319	   -340.97935408	      9.61848590	    -22.37652150
      2.88000000	     38.50013576	      6.20711875	      8.67796427	   -179.17495614	    817.71064721	      3.84878545	     16.64644735	     38.18534125	     41.76450802	     45.00000000	    -45.00000000	  -4045.42050997	  -1904.26539977	    145.71834040	    179.99999979	   1091.18392986	     49.95059424	     21.37033176	      8.07555494	      9.81258350	    -45.00000000	    -42.06133384	     45.00000000	    -30.11889618	    816.88709688	  -2613.27173655	    136.38785634	   -174.10968194	    365.93838559	   -340.77716618	      9.35998236	    -22.36677808
      2.89000000	     38.48669896	      6.28534001	      8.54368319	   -183.17386256	    818.20401244	      3.71443984	     16.55685588	     38.01783715	     41.42892358	     45.00000000	    -45.00000000	  -4045.42598567	  -1904.37010064	    145.81589838	    179.99999979	   1090.97909425	     50.91053848	     21.66024869	      8.19414471	      9.79480651	    -45.00000000	    -41.80414781	     45.00000000	    -30.81191282	    817.07074700	  -2613.30672767	    136.55473784	   -174.99682705	    365.90620655	   -340.45168470	      9.22625394	    -22.38994070
      2.90000000	     38.49529165	      6.53965711	      8.48118071	   -186.98727103	    818.70730938	      3.58102037	     16.42898344	     38.04409383	     41.05346405	     45.00000000	    -45.00000000	  -4045.42415201	  -1904.39947363	    146.03609806	    179.99999979	   1090.75941424	     51.89517929	     21.95513034	      8.31014078	      9.90314577	    -45.00000000	    -41.46526505	     45.00000000	    -31.94112876	    817.13135108	  -2613.20839411	    136.64845246	   -176.01369422	    365.98171715	   -339.99272827	      8.92724651	    -22.39972788
      2.91000000	     38.44531934	      6.54279591	      8.41012763	   -190.60166114	    819.20182564	      3.45391683	     16.33695543	     37.88155270	     40.70827358	     45.00000000	    -45.00000000	  -4045.34088671	  -1904.52452983	    146.10959084	    179.99999979	   1090.68989831	     52.72305382	     22.23583114	      8.38131233	      9.88134372	    -45.00000000	    -41.26219033	     45.00000000	    -32.52750865	    817.33562169	  -2613.31445748	    136.92247958	   -176.88124567	    365.95647802	   -339.37729026	      8.78859714	    -22.46786632
      2.92000000	     38.44044891	      6.38699721	      8.02020893	   -194.03058003	    819.67151495	      3.33412556	     15.93937629	     38.09302516	     40.36815503	     45.00000000	    -45.00000000	  -4045.35629437	  -1904.54225571	    145.96977341	    179.99999979	   1090.49804928	     53.37300761	     22.69769572	      8.60468813	      9.59020508	    -45.00000000	    -41.07662770	     45.00000000	    -32.41571845	    817.46924774	  -2613.45427605	    137.09144495	   -177.57202280	    365.64169227	   -338.73962794	      8.64768799	    -22.49387297
      2.93000000	     38.39616424	      6.57693868	      8.06381994	   -197.24920203	    820.08551835	      3.21641548	     15.98197116	     37.88040481	     39.97296210	     45.00000000	    -45.00000000	  -4045.30732232	  -1904.64210271	    146.09793540	    179.99999979	   1090.40754582	     54.01259912	     22.90876941	      8.64729841	      9.75711035	    -45.00000000	    -40.76962801	     45.00000000	    -33.38372651	    817.60524511	  -2613.47086082	    137.20600835	   -178.55542363	    365.70252532	   -337.96238778	      8.42829478	    -22.55127251
      2.94000000	     38.32766925	      6.85626938	      8.20445025	   -200.26528333	    820.42664313	      3.09699988	     16.04194185	     37.68853400	     39.66612484	     45.00000000	    -45.00000000	  -4045.20641280	  -1904.83302413	    146.37277075	    179.99999979	   1090.22549013	     54.70699491	     23.10668334	      8.68091619	      9.95443110	    -45.00000000	    -40.51466408	     45.00000000	    -34.62806593	    817.73268189	  -2613.41855174	    137.36639028	   -179.42495440	    365.94371858	   -337.07074301	      8.14037659	    -22.62497309
      2.95000000	     38.29581305	      6.97155064	      8.20978721	   -203.05656238	    820.66865826	      2.96937672	     15.98537249	     37.63260348	     39.37763976	     45.00000000	    -45.00000000	  -4045.15646177	  -1904.94595218	    146.49723489	    179.99999979	   1090.10244994	     55.33514634	     23.36588964	      8.73266054	      9.98293335	    -45.00000000	    -40.31298116	     45.00000000	    -35.41524723	    817.87608291	  -2613.47534773	    137.45872995	   -179.97455986	    365.90981072	   -336.10392499	      7.95818514	    -22.70030754
      2.96000000	     38.27345777	      7.02102510	      8.12540370	   -205.61755811	    820.80235270	      2.83349325	     15.83787465	     37.63586498	     39.12661176	     45.00000000	    -45.00000000	  -4045.12569218	  -1905.07068440	    146.59495446	    179.99999979	   1090.01627371	     55.87350752	     23.65360474	      8.79455082	      9.95483726	    -45.00000000	    -40.10835274	     45.00000000	    -36.09143397	    817.94413405	  -2613.57379189	    137.49781950	   -179.99999979	    365.84792706	   -335.08141673	      7.88718997	    -22.83423756
      2.97000000	     38.24266816	      7.21208772	      8.19052771	   -207.94736231	    820.82202282	      2.69095210	     15.79095737	     37.63884298	     38.88185180	     45.00000000	    -45.00000000	  -4045.05553083	  -1905.26322173	    146.76239672	    179.99999979	   1089.80551011	     56.42211384	     23.89271175	      8.85323762	     10.08886227	    -45.00000000	    -39.84322576	     45.00000000	    -37.28239214	    817.94382848	  -2613.53065208	    137.44910848	   -179.99999979	    365.88466770	   -333.93273048	      7.71212908	    -22.94796326
      2.98000000	     38.30047813	      6.72780214	      7.60477192	   -210.04359888	    820.73371599	      2.54973383	     15.00510844	     38.07360378	     38.78148975	     45.00000000	    -45.00000000	  -4044.89842164	  -1905.19771605	    146.78507176	    179.99999979	   1089.93838033	     56.70847166	     24.34474624	      8.97001022	      9.53067538	    -45.00000000	    -39.72994172	     45.00000000	    -36.37852776	    817.79588078	  -2613.84961745	    137.93115822	   -179.96500473	    365.85332201	   -333.13828007	      7.80099950	    -23.16693826
      2.99000000	     38.23506125	      7.07522064	      7.90365638	   -211.90410776	    820.53726374	      2.41584056	     15.37753179	     37.73390724	     38.50892402	     45.00000000	    -45.00000000	  -4044.92997252	  -1905.43131833	    146.91879324	    179.99999979	   1089.73862779	     57.06028742	     24.34273345	      8.93392733	      9.80523331	    -45.00000000	    -39.57392404	     45.00000000	    -37.53620895	    818.04935673	  -2613.87822123	    137.72217828	   -179.99999979	    365.78757915	   -332.20425397	      7.76209782	    -23.28868131
      3.00000000	     38.21706942	      7.07747529	      7.94072486	   -213.51125169	    820.23718520	      2.29755085	     15.09467820	     37.90026236	     38.16562970	     45.00000000	    -45.00000000	  -4044.79722240	  -1905.49629254	    146.79986410	    179.99999979	   1089.37112873	     57.37951184	     24.61984712	      9.09006813	      9.81682284	    -45.00000000	    -39.10213659	     45.00000000	    -38.25499742	    817.78342952	  -2613.74271907	    137.72445351	   -179.95716918	    365.51113113	   -331.36375838	      7.62498283	    -23.29493875
